<?xml version="1.0" encoding="UTF-8"?>
<svg width="12px" height="12px" viewBox="0 0 12 12" version="1.1" xmlns="http://www.w3.org/2000/svg" xmlns:xlink="http://www.w3.org/1999/xlink">
    <title>download_default</title>
    <g id="页面-1" stroke="none" stroke-width="1" fill="none" fill-rule="evenodd">
        <g id="Home--icon" transform="translate(-24, -173)" fill="#000000" fill-rule="nonzero">
            <g id="download_default" transform="translate(24, 173)">
                <path d="M11.5,8 C11.7761424,8 12,8.22385763 12,8.5 L12,11.5 C12,11.7761424 11.7761424,12 11.5,12 L0.5,12 C0.223857625,12 0,11.7761424 0,11.5 L0,8.5 C0,8.22385763 0.223857625,8 0.5,8 C0.776142375,8 1,8.22385763 1,8.5 L1,11 L11,11 L11,8.5 C11,8.25454011 11.1768752,8.05039163 11.4101244,8.00805567 L11.5,8 Z M6.03076923,0 C6.27692308,0 6.49230769,0.215384611 6.49230769,0.461538462 L6.49230769,7.04615384 L8.76923077,4.76923076 C8.95384615,4.58461538 9.23076923,4.58461538 9.41538462,4.76923076 C9.6,4.95384614 9.6,5.23076922 9.41538462,5.41538461 L6.33846154,8.49230769 C6.24615385,8.58461538 6.12307693,8.61538461 6,8.61538461 C5.87692307,8.61538461 5.75384615,8.58461538 5.66153846,8.49230769 L2.61538461,5.41538461 C2.43076923,5.23076922 2.43076923,4.95384614 2.61538461,4.76923076 C2.8,4.58461538 3.07692307,4.58461538 3.26153846,4.76923076 L5.53846154,7.04615384 L5.53846154,0.461538462 C5.53846154,0.215384611 5.78461537,0 6.03076923,0 Z"></path>
            </g>
        </g>
    </g>
</svg>