<?xml version="1.0" encoding="UTF-8"?>
<svg width="12px" height="12px" viewBox="0 0 12 12" version="1.1" xmlns="http://www.w3.org/2000/svg" xmlns:xlink="http://www.w3.org/1999/xlink">
    <title>home_active</title>
    <g id="页面-1" stroke="none" stroke-width="1" fill="none" fill-rule="evenodd">
        <g id="Home--icon" transform="translate(-317, -94)" fill="#FFFFFF" fill-rule="nonzero">
            <g id="home_active" transform="translate(317, 94)">
                <path d="M6.33640597,0.130031908 L11.8363421,5.13003191 C12.0406698,5.31578655 12.0557263,5.6320108 11.8699716,5.83633854 C11.684217,6.04066627 11.3679927,6.05572274 11.163665,5.86996809 L11,5.721 L11,11.5 C11,11.7761424 10.7761459,12 10.5,12 L7.18580681,12 C6.90966444,12 6.68580681,11.7761424 6.68580681,11.5 L6.68500353,8.568 L5.64700353,8.568 L5.64775841,11.5 C5.64775841,11.7454599 5.47088325,11.9496084 5.23763404,11.9919443 L5.14775841,12 L1.5,12 C1.22386115,12 1,11.7761424 1,11.5 L1,5.72 L0.836337786,5.86997198 C0.654711223,6.03508512 0.384674434,6.04153167 0.196448798,5.89741839 L0.130031546,5.83633426 C-0.0557207348,5.63200437 -0.0406606126,5.3157803 0.163669271,5.13002802 L5.66373318,0.130028018 C5.85444479,-0.0433441633 6.14569636,-0.0433424789 6.33640597,0.130031908 Z M6,1.175 L2,4.811 L2,11 L4.64700353,11 L4.64775841,8.06888843 C4.64775841,7.82342854 4.82463357,7.61928006 5.05788278,7.5769441 L5.14775841,7.56888843 L7.18580681,7.56888843 C7.46194919,7.56888843 7.68580681,7.79274605 7.68580681,8.06888843 L7.68500353,11 L10,11 L10,4.812 L6,1.175 Z"></path>
            </g>
        </g>
    </g>
</svg>