<?xml version="1.0" encoding="UTF-8"?>
<svg width="12px" height="12px" viewBox="0 0 12 12" version="1.1" xmlns="http://www.w3.org/2000/svg" xmlns:xlink="http://www.w3.org/1999/xlink">
    <title>literature_active</title>
    <g id="é¡µé¢-1" stroke="none" stroke-width="1" fill="none" fill-rule="evenodd">
        <g id="Home--icon" transform="translate(-317, -294)" fill="#FFFFFF" fill-rule="nonzero">
            <g id="literature_active" transform="translate(317, 294)">
                <path d="M11,0 C11.5522847,0 12,0.44771525 12,1 L12,11 C12,11.5522847 11.5522847,12 11,12 L1,12 C0.44771525,12 0,11.5522847 0,11 L0,1 C0,0.44771525 0.44771525,0 1,0 L11,0 Z M11,1 L1,1 L1,11 L11,11 L11,1 Z M10,8.66666667 L10,9.66666667 L2,9.66666667 L2,8.66666667 L10,8.66666667 Z M10,6 L10,7 L2,7 L2,6 L10,6 Z M5,2 L5,5 L2,5 L2,2 L5,2 Z M10,3.5 L10,5 L6,5 L6,3.5 L10,3.5 Z"></path>
            </g>
        </g>
    </g>
</svg>