<?xml version="1.0" encoding="UTF-8"?>
<svg width="12px" height="12px" viewBox="0 0 12 12" version="1.1" xmlns="http://www.w3.org/2000/svg" xmlns:xlink="http://www.w3.org/1999/xlink">
    <title>plotter_default</title>
    <g id="é¡µé¢-1" stroke="none" stroke-width="1" fill="none" fill-rule="evenodd">
        <g id="Home--icon" transform="translate(-24, -134)" fill="#000000" fill-rule="nonzero">
            <g id="plotter_default" transform="translate(24, 134)">
                <path d="M0.5,0 C0.776142375,0 1,0.223857625 1,0.5 L1,11 L11.5,11 C11.7454599,11 11.9496084,11.1768752 11.9919443,11.4101244 L12,11.5 C12,11.7761424 11.7761424,12 11.5,12 L0.5,12 C0.223857625,12 0,11.7761424 0,11.5 L0,0.5 C0,0.223857625 0.223857625,0 0.5,0 Z M3.2,8.1312412 C3.69705627,8.1312412 4.1,8.53418492 4.1,9.0312412 C4.1,9.52829747 3.69705627,9.9312412 3.2,9.9312412 C2.70294373,9.9312412 2.3,9.52829747 2.3,9.0312412 C2.3,8.53418492 2.70294373,8.1312412 3.2,8.1312412 Z M5.9,8.1312412 C6.23137085,8.1312412 6.5,8.39987035 6.5,8.7312412 C6.5,9.06261205 6.23137085,9.3312412 5.9,9.3312412 C5.56862915,9.3312412 5.3,9.06261205 5.3,8.7312412 C5.3,8.39987035 5.56862915,8.1312412 5.9,8.1312412 Z M8,8.1312412 C8.16568542,8.1312412 8.3,8.26555577 8.3,8.4312412 C8.3,8.59692662 8.16568542,8.7312412 8,8.7312412 C7.83431458,8.7312412 7.7,8.59692662 7.7,8.4312412 C7.7,8.26555577 7.83431458,8.1312412 8,8.1312412 Z M3.5,6.3312412 C3.83137085,6.3312412 4.1,6.59987035 4.1,6.9312412 C4.1,7.26261205 3.83137085,7.5312412 3.5,7.5312412 C3.16862915,7.5312412 2.9,7.26261205 2.9,6.9312412 C2.9,6.59987035 3.16862915,6.3312412 3.5,6.3312412 Z M6.47,3.9312412 C7.46411255,3.9312412 8.27,4.73712865 8.27,5.7312412 C8.27,6.72535375 7.46411255,7.5312412 6.47,7.5312412 C5.47588745,7.5312412 4.67,6.72535375 4.67,5.7312412 C4.67,4.73712865 5.47588745,3.9312412 6.47,3.9312412 Z M9.8,5.7312412 C10.2970563,5.7312412 10.7,6.13418492 10.7,6.6312412 C10.7,7.12829747 10.2970563,7.5312412 9.8,7.5312412 C9.30294373,7.5312412 8.9,7.12829747 8.9,6.6312412 C8.9,6.13418492 9.30294373,5.7312412 9.8,5.7312412 Z M2.87,3.3312388 C3.5327417,3.3312388 4.07,3.8684971 4.07,4.5312388 C4.07,5.1939805 3.5327417,5.7312388 2.87,5.7312388 C2.2072583,5.7312388 1.67,5.1939805 1.67,4.5312388 C1.67,3.8684971 2.2072583,3.3312388 2.87,3.3312388 Z M10.1,2.7312388 C10.7627417,2.7312388 11.3,3.2684971 11.3,3.9312388 C11.3,4.5939805 10.7627417,5.1312388 10.1,5.1312388 C9.4372583,5.1312388 8.9,4.5939805 8.9,3.9312388 C8.9,3.2684971 9.4372583,2.7312388 10.1,2.7312388 Z M7.4,0.331238799 C8.22842712,0.331238799 8.9,1.00281167 8.9,1.8312388 C8.9,2.65966592 8.22842712,3.3312388 7.4,3.3312388 C6.57157288,3.3312388 5.9,2.65966592 5.9,1.8312388 C5.9,1.00281167 6.57157288,0.331238799 7.4,0.331238799 Z M5,2.1312388 C5.16568542,2.1312388 5.3,2.26555337 5.3,2.4312388 C5.3,2.59692422 5.16568542,2.7312388 5,2.7312388 C4.83431458,2.7312388 4.7,2.59692422 4.7,2.4312388 C4.7,2.26555337 4.83431458,2.1312388 5,2.1312388 Z M11,0.331238799 C11.4970563,0.331238799 11.9,0.734182524 11.9,1.2312388 C11.9,1.72829507 11.4970563,2.1312388 11,2.1312388 C10.5029437,2.1312388 10.1,1.72829507 10.1,1.2312388 C10.1,0.734182524 10.5029437,0.331238799 11,0.331238799 Z"></path>
            </g>
        </g>
    </g>
</svg>