<?xml version="1.0" encoding="UTF-8"?>
<svg width="12px" height="12px" viewBox="0 0 12 12" version="1.1" xmlns="http://www.w3.org/2000/svg" xmlns:xlink="http://www.w3.org/1999/xlink">
    <title>polytool_active</title>
    <g id="页面-1" stroke="none" stroke-width="1" fill="none" fill-rule="evenodd">
        <g id="Home--icon" transform="translate(-317, -254)" fill="#FFFFFF" fill-rule="nonzero">
            <g id="polytool_active" transform="translate(317, 254)">
                <path d="M0.5,0 C0.776142375,0 1,0.223857625 1,0.5 L1,8.196 L2.43057143,5.33266737 C2.24102041,5.13430002 2.11255394,4.87736708 2.07971762,4.59101639 L2.07142857,4.44552451 C2.07142857,3.73666737 2.64828571,3.15981023 3.35714286,3.15981023 C4.066,3.15981023 4.64285714,3.73666737 4.64285714,4.44552451 C4.64285714,4.54066737 4.63085714,4.6332388 4.61114286,4.72238166 L5.99028571,5.58638166 C6.20971429,5.41152451 6.484,5.30266737 6.78571429,5.30266737 C6.95542857,5.30266737 7.11742857,5.33781023 7.26571429,5.39781023 L9.09485714,3.35095308 C8.992,3.16581023 8.92857143,2.95666737 8.92857143,2.7312388 C8.92857143,2.02238166 9.50542857,1.44552451 10.2142857,1.44552451 C10.9231429,1.44552451 11.5,2.02238166 11.5,2.7312388 C11.5,3.44009594 10.9231429,4.01695308 10.2142857,4.01695308 C10.0445714,4.01695308 9.88257143,3.98181023 9.73342857,3.92181023 L7.90514286,5.96866737 C8.008,6.15381023 8.07142857,6.36295308 8.07142857,6.58838166 C8.07142857,7.2972388 7.49457143,7.87409594 6.78571429,7.87409594 C6.07685714,7.87409594 5.5,7.2972388 5.5,6.58838166 C5.5,6.4932388 5.512,6.40066737 5.53171429,6.31152451 L4.15257143,5.44752451 C3.93314286,5.62238166 3.65885714,5.7312388 3.35714286,5.7312388 C3.30228571,5.7312388 3.25,5.72181023 3.19685714,5.71495308 L1,10.116 L1,11 L11.5,11 C11.7454599,11 11.9496084,11.1768752 11.9919443,11.4101244 L12,11.5 C12,11.7761424 11.7761424,12 11.5,12 L0.5,12 C0.223857625,12 0,11.7761424 0,11.5 L0,0.5 C0,0.223857625 0.223857625,0 0.5,0 Z"></path>
            </g>
        </g>
    </g>
</svg>