<?xml version="1.0" encoding="UTF-8"?>
<svg width="12px" height="12px" viewBox="0 0 12 12" version="1.1" xmlns="http://www.w3.org/2000/svg" xmlns:xlink="http://www.w3.org/1999/xlink">
    <title>upload_active</title>
    <g id="页面-1" stroke="none" stroke-width="1" fill="none" fill-rule="evenodd">
        <g id="Home--icon" transform="translate(-317, -213)" fill="#FFFFFF" fill-rule="nonzero">
            <g id="upload_active" transform="translate(317, 213)">
                <path d="M11.5,8 C11.7761424,8 12,8.22385763 12,8.5 L12,11.5 C12,11.7761424 11.7761424,12 11.5,12 L0.5,12 C0.223857625,12 0,11.7761424 0,11.5 L0,8.5 C0,8.22385763 0.223857625,8 0.5,8 C0.776142375,8 1,8.22385763 1,8.5 L1,11 L11,11 L11,8.5 C11,8.25454011 11.1768752,8.05039163 11.4101244,8.00805567 L11.5,8 Z M6,0 C6.12307693,0 6.24615385,0.030769226 6.33846154,0.123076918 L9.41538462,3.2 C9.6,3.38461539 9.6,3.66153847 9.41538462,3.84615385 C9.23076923,4.03076924 8.95384615,4.03076924 8.76923077,3.84615385 L6.49230769,1.56923077 L6.49230769,8.15384615 C6.49230769,8.4 6.27692308,8.61538461 6.03076923,8.61538461 C5.78461537,8.61538461 5.53846154,8.4 5.53846154,8.15384615 L5.53846154,1.56923077 L3.26153846,3.84615385 C3.07692307,4.03076924 2.8,4.03076924 2.61538461,3.84615385 C2.43076923,3.66153847 2.43076923,3.38461539 2.61538461,3.2 L5.66153846,0.123076918 C5.75384615,0.030769226 5.87692307,0 6,0 Z"></path>
            </g>
        </g>
    </g>
</svg>